<svg enable-background="new 0 0 97.75 97.75" height="512" viewBox="0 0 97.75 97.75" width="512" xmlns="http://www.w3.org/2000/svg"><g fill="#fff"><path d="m39.337 38.729c0-4.611-3.137-4.611-3.137-4.611h-1.661-11.245v9.894h12.106c2.092-.001 3.937-.67 3.937-5.283z"/><path d="m36.201 50.846h-12.907v11.85h12.311c1.852-.053 5.27-.633 5.27-5.76 0-6.152-4.674-6.09-4.674-6.09z"/><path d="m69.243 44.011c-6.849 0-7.804 6.835-7.804 6.835h14.565c.001 0 .088-6.835-6.761-6.835z"/><path d="m48.875 0c-26.993 0-48.875 21.883-48.875 48.875s21.882 48.875 48.875 48.875 48.875-21.883 48.875-48.875-21.882-48.875-48.875-48.875zm10.656 28.848h18.294v5.46h-18.294zm-9.246 28.638c0 13.533-14.084 13.088-14.084 13.088h-12.907-.379-9.787v-44.338h9.787.379 12.906c7.012 0 12.547 3.871 12.547 11.805 0 7.935-6.766 8.438-6.766 8.438 8.919 0 8.304 11.007 8.304 11.007zm19.045 6.993c7.37 0 7.109-4.77 7.109-4.77h7.803c0 12.659-15.172 11.792-15.172 11.792-18.207 0-17.036-16.95-17.036-16.95s-.014-17.034 17.034-17.034c17.947 0 15.434 19.245 15.434 19.245h-22.975c0 8.239 7.803 7.717 7.803 7.717z"/></g></svg>