<svg enable-background="new 0 0 612 612" height="512" viewBox="0 0 612 612" width="512" xmlns="http://www.w3.org/2000/svg"><path d="m306 612c-28.152 0-55.284-3.672-81.396-11.016-26.112-7.347-50.49-17.646-73.134-30.906s-43.248-29.172-61.812-47.736c-18.564-18.562-34.476-39.168-47.736-61.812-13.26-22.646-23.562-47.022-30.906-73.135-7.344-26.111-11.016-53.243-11.016-81.395s3.672-55.284 11.016-81.396 17.646-50.49 30.906-73.134 29.172-43.248 47.736-61.812 39.168-34.476 61.812-47.736 47.022-23.562 73.134-30.906 53.244-11.016 81.396-11.016c42.024 0 81.702 8.058 119.034 24.174s69.768 37.944 97.308 65.484 49.368 59.976 65.484 97.308 24.174 77.01 24.174 119.034c0 28.152-3.672 55.284-11.016 81.396-7.347 26.109-17.646 50.487-30.906 73.134-13.26 22.644-29.172 43.248-47.736 61.812-18.562 18.564-39.168 34.479-61.812 47.736-22.646 13.26-47.022 23.562-73.136 30.906-26.11 7.344-53.242 11.016-81.394 11.016zm147.492-432.072h-290.088c-2.856 0-5.304.918-7.344 2.754s-3.06 4.386-3.06 7.65v32.436c0 1.632.612 2.448 1.836 2.448l152.388 86.904 1.227.612c.813 0 1.428-.204 1.836-.612l147.492-86.904c.813-.408 1.428-.612 1.836-.612.405 0 1.02-.204 1.836-.612 1.632 0 2.448-.816 2.448-2.448v-31.212c0-3.264-1.021-5.814-3.063-7.65s-4.488-2.754-7.344-2.754zm-208.08 130.356c.408-.408.612-1.021.612-1.836 0-1.227-.408-1.836-1.224-1.836l-87.516-50.185c-1.224-.408-2.244-.408-3.06 0-.816 0-1.224.612-1.224 1.836v131.58c0 1.227.612 2.04 1.836 2.448h1.224c.816 0 1.224-.204 1.224-.612zm106.488 9.792c-.408-1.227-1.431-1.428-3.063-.612l-33.66 19.584c-4.08 2.448-8.361 2.448-12.852 0l-29.376-16.521c-1.224-.816-2.244-.816-3.06 0l-111.996 104.04c-.408.405-.612 1.224-.612 2.445 0 .408.408 1.021 1.224 1.836 2.448.816 4.08 1.227 4.896 1.227h287.029c.816 0 1.635-.408 2.448-1.227 0-1.632-.204-2.649-.612-3.06zm110.16-66.096h-2.445l-83.232 49.572c-.813 0-1.224.612-1.224 1.836-.408.408-.204 1.02.609 1.833l83.232 89.967c.816.816 1.428 1.227 1.836 1.227h1.224c1.227-1.227 1.839-2.04 1.839-2.448v-139.538c-.003-.817-.615-1.633-1.839-2.449z" fill="#fff"/></svg>