<svg height="751.8" viewBox="0 0 817.5 751.8" width="817.5" xmlns="http://www.w3.org/2000/svg"><g transform="translate(-228.9)"><path d="m338.5 409c10 0 22.4-14 32.4-29.6a3.1 3.1 0 0 1 2.7-1.7 3.1 3.1 0 0 1 3.2 3.1 5.3 5.3 0 0 1 -.6 2.3c-10.8 16.8-24 32.6-39 32.6-10.8 0-19.1-7.4-19.1-20.6a27.3 27.3 0 0 1 2.3-11.1c-13.7 18.5-32.5 32.8-53 32.8-22.3 0-38.5-14-38.5-39 0-32.4 24.8-63.8 55-79.8v-2.7c0-11.5 6.2-19.3 9.4-19.3a3.6 3.6 0 0 1 3.8 3.5c0 1.2-.4 2-1.6 3.4a19.5 19.5 0 0 0 -3.5 11 85.3 85.3 0 0 1 33.8-7.5c15.2 0 24.9 6.6 28.1 15.9l2.9-6.3c1.6-3.5 3.6-5.6 5.7-5.6a4.3 4.3 0 0 1 4.6 4.6c0 5.6-4.9 15.8-14.3 30.9-2.7 5.4-11.6 24.1-17.7 39.9-5.4 13.7-7.8 23.2-7.8 29.4 0 8.8 4.8 13.8 11.2 13.8zm3.2-78.4a35.1 35.1 0 0 1 -16.7 4.3c-18.6 0-34.9-12.3-39.6-29.1-26.3 15.6-46.9 44.2-46.9 72 0 20.7 13.8 31.5 29.2 31.5 18.3 0 35.2-14.2 47.9-31.3a179.5 179.5 0 0 0 19.2-32.5zm-49-28.8c3.2 16.1 16 26.6 32.3 26.6 12.8 0 22.7-8.6 22.7-18.6s-8.1-16.3-21.9-16.3c-11.2 0-22.5 3.1-33.1 8.3z" fill="#231f20"/><path d="m412.1 379.4a3.1 3.1 0 0 1 2.7-1.7 3.1 3.1 0 0 1 3.2 3.1 5.3 5.3 0 0 1 -.6 2.3c-9.9 15.2-21.5 29.7-34.6 29.7-9.3 0-15.2-5.7-15.2-17.5 0-15.4 16.4-51 28.3-73.9 4.1-8 7.5-13.6 10-13.6a3.8 3.8 0 0 1 4.1 4c0 6.5-9.5 23.2-20.2 41.4-7.8 17-13.6 32.9-13.6 42.6 0 7.3 3.3 10.6 7.9 10.6 8.4 0 18.9-13 28-27z" fill="#231f20"/><path d="m475.9 379.4s1.1-1.7 2.5-1.7a3.1 3.1 0 0 1 3.3 3.3 6.1 6.1 0 0 1 -.6 2.1c-11.1 17.1-28.9 29.7-47.1 29.7-15.4 0-24-7.6-24-21.6 0-26.3 23.4-45.7 40.4-45.7 9.6 0 15.1 4.8 15.1 13.2 0 12.9-20.3 24.8-46.1 27.2-.1 1.8-.3 3.7-.3 5.4 0 9.7 6.4 14.7 15.7 14.7 13.1 0 30.7-10.5 41.1-26.6zm-54.9 0c20.5-2.5 35.9-12.1 35.9-21.6 0-3.5-2.7-5.7-6.6-5.7-9.7 0-24.2 11.4-29.3 27.3z" fill="#231f20"/><path d="m557.8 348.6c0 1.4-.8 2.8-3.5 3.9-5.9 2.4-19.9 15.5-33 28.5 2.7 18.9 7.8 25.1 13.7 25.1 4.2 0 7.8-4.1 10.5-8.6a3.2 3.2 0 0 1 2.6-1.9 2.7 2.7 0 0 1 2.5 2.7c0 2.3-1.9 5.9-4.9 8.9s-7.2 5.6-12.1 5.6c-9.6 0-15.8-5.7-19.6-24.2-10.3 10.8-23.8 24-31.1 24-2.7 0-4.3-1.2-4.3-3.1a3.4 3.4 0 0 1 2.7-3.4c7.3-2.2 19.4-13.2 31.3-25.6l-.3-3c-2.9-22.9-4.5-25.4-6.4-25.4-3.6 0-16.8 18.6-24.8 30.8-.8 1.3-1.6 2.2-3 2.2a3 3 0 0 1 -3.2-2.8 4.6 4.6 0 0 1 1-2.9c11.4-17.5 22.7-33.9 31.6-33.9 3.5 0 5.7 1 7.5 3.7s3.3 8.4 5.2 23.2c11.5-11.8 26.4-26.9 33.4-26.9 2.7 0 4.2 1.3 4.2 3.1z" fill="#231f20"/><path d="m656.3 329c12.9-18.4 34.4-42.6 52.7-42.6 10.3 0 18.1 7 18.1 22.1a73.7 73.7 0 0 1 -2.4 18.3c13.2-17.8 34.2-40.4 52.3-40.4 10.7 0 18.5 6.3 18.5 19.7 0 28-40.7 63.6-40.7 89.2 0 8.7 4.7 13.7 11.1 13.7 10 0 22.4-14 32.4-29.6a3.1 3.1 0 0 1 2.7-1.7 3.1 3.1 0 0 1 3.2 3.1 4.2 4.2 0 0 1 -.6 2.3c-10.8 16.8-24 32.6-39 32.6-10.8 0-19.1-7.4-19.1-20.6 0-27.8 40.8-63.9 40.8-89.2 0-8.2-3.7-12.4-10.1-12.4-13.5 0-33.4 20.7-47.8 40.9-7.8 11-12.3 19.1-18.6 32.1s-15.6 33.4-19.9 43.3c-1.6 3.5-3.7 5.5-5.7 5.5a4.3 4.3 0 0 1 -4.6-4.6c0-5.5 4.9-15.7 14.3-30.8a348.8 348.8 0 0 0 14.9-33.3c6.9-17.8 9.2-30.2 9.2-38.3 0-10-3.6-14.8-9.8-14.8-13.4 0-33.3 20.7-47.7 40.9-7.8 11-12.3 19.1-18.6 32.1s-15.9 34.1-20.2 44.1c-1.6 3.5-3.7 5.5-5.7 5.5a4.4 4.4 0 0 1 -4.7-4.6c0-5.5 5-15.7 14.4-30.8 2.3-4.6 10.1-20.7 15.2-34.1 6.4-16.5 9.2-27.6 9.2-35.3s-3.5-14.1-9.5-16.5c-3.8 23.9-26.9 54.1-47.2 54.1-10.7 0-17.2-6.4-17.2-17.4 0-22.4 30.2-44.5 56.8-44.8-.2-5.1-1.3-7.3-2.1-8.7a6.1 6.1 0 0 1 -1-2.6 3.8 3.8 0 0 1 3.9-3.5c3.6 0 7.3 5.4 7.4 15.8 11 2.8 18 11.9 18 23.8a57.7 57.7 0 0 1 -2.9 17.5zm-23.8-35.5c-22.6.4-47.9 19.3-47.9 38.7 0 6.2 3.4 9.8 8.9 9.8 16.7 0 35.8-27.8 39-48.5z" fill="#231f20"/><path d="m838.9 379.4a3 3 0 0 1 2.7-1.7 3.2 3.2 0 0 1 3.2 3.1 4.3 4.3 0 0 1 -.7 2.3c-9.8 15.2-21.4 29.7-34.5 29.7-8.9 0-14.8-5.6-14.8-16.7s6.2-26.1 12-37.1c4.9-9.5 7.4-13.5 9.8-13.5s4.3 1.6 4.3 3.8-2.4 7.5-6.8 14.7c-5.3 10.5-10.5 22.9-10.5 32.4 0 7.2 3 10 7.3 10 8.4 0 18.9-13 28-27zm-9.9-58.4a5.5 5.5 0 0 1 5.8 5.6c0 2.9-2.8 7.5-7.2 7.5s-5.9-1.9-5.9-5.4 3.4-7.7 7.3-7.7z" fill="#231f20"/><path d="m916.8 379.4a3.1 3.1 0 0 1 2.7-1.7 3.1 3.1 0 0 1 3.2 3.1 4.3 4.3 0 0 1 -.7 2.3c-9.8 15.2-21.4 29.7-34.5 29.7-8.2 0-13.6-5.4-13.6-14.6 0-14.2 14.9-29.5 14.9-40.6 0-3.5-2.1-5.5-5.6-5.5-8.4 0-22.2 10.3-30 19.7-6.5 7.9-12.4 23.5-16.4 36.2-.6 2.1-1.6 4.8-4.8 4.8a3 3 0 0 1 -3.1-3.2 10.7 10.7 0 0 1 .6-3.8c6.2-19.1 14.6-40.1 21.3-56.1 1.1-2.7 2.9-4.2 5.1-4.2s3.8 1.5 3.8 3.5-1.4 5.1-3.8 9.3l-2.2 5.4c8.9-9.7 20.5-18.2 29.7-18.2s13.5 5.1 13.5 12.8c0 13.5-14.6 27-14.6 41 0 4.6 2.5 7.1 6.5 7.1 8.4 0 18.9-13 28-27z" fill="#231f20"/><path d="m980.6 379.4s1.1-1.7 2.5-1.7a3.1 3.1 0 0 1 3.3 3.3 6.1 6.1 0 0 1 -.6 2.1c-11.1 17.1-28.9 29.7-47.1 29.7-15.4 0-24-7.6-24-21.6 0-26.3 23.4-45.7 40.4-45.7 9.6 0 15.1 4.8 15.1 13.2 0 12.9-20.3 24.8-46.1 27.2-.1 1.8-.3 3.7-.3 5.4 0 9.7 6.4 14.7 15.7 14.7 13.1 0 30.7-10.5 41.1-26.6zm-54.9 0c20.5-2.5 35.9-12.1 35.9-21.6 0-3.5-2.7-5.7-6.6-5.7-9.7 0-24.2 11.4-29.3 27.3z" fill="#231f20"/><path d="m1012 404.7c13.4-5.1 22.1-15.6 28.5-25.3 0 0 1.1-1.7 2.6-1.7a3 3 0 0 1 3.3 3.1 8.8 8.8 0 0 1 -.6 2.3c-9.4 14.7-25.2 29.7-50.8 29.7-14.9 0-22.7-8.1-22.7-17.3 0-2.9 3-8.1 8.3-16.1s10.3-18.1 15.9-30.1v-2.2c0-10.5 5.1-17.8 9.3-17.8s5.5 1.9 5.5 4.8-2.1 8.6-6.6 16.2c3.4 11.8 14.8 24.3 14.8 39a18.7 18.7 0 0 1 -7.5 15.4zm-11.9-46c-4.1 8-8.9 15.9-14.3 24.4-4 5.8-5.9 9.3-5.9 11.4 0 3.8 4.2 11.9 14.7 11.9s16.3-8.1 16.3-17c0-11.9-6.5-20-10.8-30.7z" fill="#231f20"/><path d="m470.1 484c-8.2 0-11.6-6.9-11.6-14.2s3.4-14.3 11.6-14.3a11.7 11.7 0 0 1 8.7 4l-3.6 2.9a6.6 6.6 0 0 0 -5.1-2.3c-5.2 0-6.7 5.2-6.7 9.5s1.5 9.7 6.7 9.7a6.9 6.9 0 0 0 4.7-2v-3.1h-3.1v-4.2h8.1v8.6a11.6 11.6 0 0 1 -9.7 5.4z" fill="#231f20"/><path d="m500.9 483.7-7.9-11.3h-2.7v11.3h-5v-27.8h9.1c5.4 0 9.4 2.8 9.4 8.3a7.5 7.5 0 0 1 -5.6 7.7l8.8 11.8zm-6.7-23.2h-3.9v7.3h3.9c3.1 0 4.7-1.3 4.7-3.6s-1.6-3.7-4.7-3.7z" fill="#231f20"/><path d="m526.8 483.7-2.1-6.1h-10.2l-2 6.1h-5.2l9.8-27.8h5l9.6 27.8zm-6.7-20.2-.5-1.9a10.6 10.6 0 0 1 -.5 1.9l-3.1 9.7h7.2z" fill="#231f20"/><path d="m544.7 472.4h-4.1v11.3h-5v-27.8h9.1c5.4 0 9.4 2.8 9.4 8.3s-4 8.2-9.4 8.2zm-.1-11.9h-4v7.3h4c3.3 0 4.8-1.3 4.8-3.6s-1.5-3.7-4.8-3.7z" fill="#231f20"/><path d="m575 483.7v-12.4h-11.2v12.4h-5v-27.8h5v10.9h11.2v-10.9h5v27.8z" fill="#231f20"/><path d="m586.3 483.7v-27.8h5v27.8z" fill="#231f20"/><path d="m608.5 484c-6.3 0-11.9-4.8-11.9-14.1s5.6-14.4 11.9-14.4c3.9 0 6.4 1.4 9 4l-3.6 3.1a6.5 6.5 0 0 0 -5.4-2.6c-3.9 0-6.9 3.5-6.9 9.9s3 9.5 6.9 9.5c2.2 0 3.6-.7 5.4-2.6l3.7 2.9c-2.8 3-5.3 4.3-9.1 4.3z" fill="#231f20"/><path d="m641.7 483.7h-9.1v-27.8h9.1c8.4 0 12.4 6.6 12.4 14.1s-4.2 13.7-12.4 13.7zm0-23.2h-4v18.7h4c5.3 0 7.5-4.6 7.5-9.2s-2-9.5-7.5-9.5z" fill="#231f20"/><path d="m659.4 483.7v-27.8h16.9v4.6h-11.9v6.3h8.6v4.5h-8.6v7.9h13.3v4.5z" fill="#231f20"/><path d="m689.5 484.2a14.1 14.1 0 0 1 -9.7-4.4l3.7-3.1a8.7 8.7 0 0 0 6 3c2.7 0 4.4-1.6 4.4-3.6 0-5.2-13.1-4.2-13.1-12.9 0-4.7 3.7-7.9 9.1-7.9a12.9 12.9 0 0 1 8.2 3.3l-3.6 3.2a7.1 7.1 0 0 0 -4.6-1.9c-2.5 0-3.9 1.2-3.9 3.1 0 4.9 13 4 13 13 0 5.6-4.8 8.2-9.5 8.2z" fill="#231f20"/><path d="m703.7 483.7v-27.8h5v27.8z" fill="#231f20"/><path d="m725.6 484c-8.1 0-11.6-6.9-11.6-14.2s3.5-14.3 11.6-14.3a12.1 12.1 0 0 1 8.8 4l-3.6 2.9a6.7 6.7 0 0 0 -5.2-2.3c-5.2 0-6.6 5.2-6.6 9.5s1.4 9.7 6.6 9.7a7 7 0 0 0 4.8-2v-3.1h-3.1v-4.2h8v8.6a11.5 11.5 0 0 1 -9.7 5.4z" fill="#231f20"/><path d="m758.3 483.7-11.5-18a13.7 13.7 0 0 1 -1-1.8v19.8h-4.9v-27.8h4.9l11.4 18a17.1 17.1 0 0 1 1.1 2v-20h4.9v27.8z" fill="#231f20"/><path d="m769.6 483.7v-27.8h16.9v4.6h-12v6.3h8.6v4.5h-8.6v7.9h13.4v4.5z" fill="#231f20"/><path d="m807.5 483.7-7.9-11.3h-2.7v11.3h-5v-27.8h9.1c5.4 0 9.5 2.8 9.5 8.3a7.5 7.5 0 0 1 -5.7 7.7l8.8 11.8zm-6.7-23.2h-3.9v7.3h3.9c3.1 0 4.7-1.3 4.7-3.6s-1.6-3.7-4.7-3.7z" fill="#231f20"/><g fill="none" stroke="#231f20" stroke-width="10"><path d="m948.3 433.9c-22.1 155.1-155.4 274.4-316.7 274.4-163.9 0-299-123.2-317.7-282.1" stroke-linecap="round" stroke-linejoin="round"/><path d="m340.3 256c50.3-110.6 161.8-187.6 291.3-187.6 153 0 280.8 107.3 312.5 250.8" stroke-linecap="round" stroke-linejoin="round"/><path d="m380.6 178.6s-20.6-42.4-88.7-15.6c0 0 40.6 42 88.7 15.6z" stroke-miterlimit="10"/><path d="m410 164.5s-37.1 29.1 3.5 90.1c0 0 32.4-48.6-3.5-90.1z" stroke-miterlimit="10"/><path d="m498.2 102.6s-44.2 16.4-24.1 86.8c0 0 45.7-36.4 24.1-86.8z" stroke-miterlimit="10"/><path d="m608.8 73.2s-46.5 7.5-40.5 80.5c0 0 51.9-26.8 40.5-80.5z" stroke-miterlimit="10"/><path d="m744.7 92.1s-42.1-21.3-80.2 41.2c0 0 57.8 8.9 80.2-41.2z" stroke-miterlimit="10"/><path d="m846.1 158s-30.2-36.3-89.9 6c0 0 49.5 31.1 89.9-6z" stroke-miterlimit="10"/><path d="m915.5 253.9s-20.8-42.3-88.8-15.1c0 0 40.9 41.7 88.8 15.1z" stroke-miterlimit="10"/><path d="m924.6 506.8s10.4-46-59.5-67.6c0 0 5.5 58.2 59.5 67.6z" stroke-miterlimit="10"/><path d="m861.7 608.1s32.1-34.6-17.6-88.4c0 0-24.4 53.1 17.6 88.4z" stroke-miterlimit="10"/><path d="m755.6 679.6s42.4-20.6 15.5-88.7c0 0-41.9 40.7-15.5 88.7z" stroke-miterlimit="10"/><path d="m620.5 705.8s47.1 2.9 57.2-69.7c0 0-56.5 14.8-57.2 69.7z" stroke-miterlimit="10"/><path d="m496.3 677.3s46.5 7.9 64.3-63.2c0 0-57.8 8.7-64.3 63.2z" stroke-miterlimit="10"/><path d="m402.9 610.9s43.9 17.3 75.9-48.6c0 0-58.3-3.4-75.9 48.6z" stroke-miterlimit="10"/><path d="m340 506s30.5 36.1 89.9-6.7c0 0-49.7-30.7-89.9 6.7z" stroke-miterlimit="10"/><path d="m467.3 112.6s-10.9-45.9-83.2-34.6c0 0 30.4 49.8 83.2 34.6z" stroke-miterlimit="10"/><path d="m586.7 67.6s-10.8-45.9-83.2-34.6c0 0 30.5 49.8 83.2 34.6z" stroke-miterlimit="10"/><path d="m732.1 79s13.6-45.2-54.7-71.6c0 0 1.4 58.4 54.7 71.6z" stroke-miterlimit="10"/><path d="m842.3 143s31-35.6-20.3-87.8c0 0-22.7 53.8 20.3 87.8z" stroke-miterlimit="10"/><path d="m919.3 243.3s40.5-24.2 7.8-89.8c0 0-38.2 44.2-7.8 89.8z" stroke-miterlimit="10"/><path d="m930.3 508s45.4 12.5 70.3-56.4c0 0-58.4 2.8-70.3 56.4z" stroke-miterlimit="10"/><path d="m871.8 608.4s37.1 29.2 86.6-24.7c0 0-54.9-20-86.6 24.7z" stroke-miterlimit="10"/><path d="m613.7 713.7s13.3 45.2 85 30c0 0-33.2-48.1-85-30z" stroke-miterlimit="10"/><path d="m495 685s-4 47.1 68.3 58.8c0 0-13.5-56.9-68.3-58.8z" stroke-miterlimit="10"/><path d="m399.5 614.2s-23.3 41 37.4 81.9c0 0 11.5-57.2-37.4-81.9z" stroke-miterlimit="10"/><path d="m329.3 503.8s-38.7 27-1.5 90.1c0 0 35-46.7 1.5-90.1z" stroke-miterlimit="10"/><path d="m766.4 685.5s29.8 36.5 90-5.2c0 0-49.3-31.5-90 5.2z" stroke-miterlimit="10"/></g></g></svg>