<svg xmlns="http://www.w3.org/2000/svg" width="817.5" height="751.8" viewBox="0 0 817.5 751.8"><title>Asset 1</title><g id="Layer_2" data-name="Layer 2"><g id="Layer_1-2" data-name="Layer 1"><path d="M338.5,409c10,0,22.4-14,32.4-29.6a3.1,3.1,0,0,1,2.7-1.7,3.1,3.1,0,0,1,3.2,3.1,5.3,5.3,0,0,1-.6,2.3c-10.8,16.8-24,32.6-39,32.6-10.8,0-19.1-7.4-19.1-20.6a27.3,27.3,0,0,1,2.3-11.1c-13.7,18.5-32.5,32.8-53,32.8-22.3,0-38.5-14-38.5-39,0-32.4,24.8-63.8,55-79.8v-2.7c0-11.5,6.2-19.3,9.4-19.3a3.6,3.6,0,0,1,3.8,3.5c0,1.2-.4,2-1.6,3.4a19.5,19.5,0,0,0-3.5,11h0a85.3,85.3,0,0,1,33.8-7.5c15.2,0,24.9,6.6,28.1,15.9l2.9-6.3c1.6-3.5,3.6-5.6,5.7-5.6a4.3,4.3,0,0,1,4.6,4.6c0,5.6-4.9,15.8-14.3,30.9-2.7,5.4-11.6,24.1-17.7,39.9-5.4,13.7-7.8,23.2-7.8,29.4C327.3,404,332.1,409,338.5,409Zm3.2-78.4a35.1,35.1,0,0,1-16.7,4.3c-18.6,0-34.9-12.3-39.6-29.1-26.3,15.6-46.9,44.2-46.9,72,0,20.7,13.8,31.5,29.2,31.5,18.3,0,35.2-14.2,47.9-31.3a179.5,179.5,0,0,0,19.2-32.5Zm-49-28.8c3.2,16.1,16,26.6,32.3,26.6,12.8,0,22.7-8.6,22.7-18.6s-8.1-16.3-21.9-16.3C314.6,293.5,303.3,296.6,292.7,301.8Z" transform="translate(-228.9)" fill="#231f20"/><path d="M412.1,379.4a3.1,3.1,0,0,1,2.7-1.7,3.1,3.1,0,0,1,3.2,3.1,5.3,5.3,0,0,1-.6,2.3c-9.9,15.2-21.5,29.7-34.6,29.7-9.3,0-15.2-5.7-15.2-17.5,0-15.4,16.4-51,28.3-73.9,4.1-8,7.5-13.6,10-13.6a3.8,3.8,0,0,1,4.1,4c0,6.5-9.5,23.2-20.2,41.4-7.8,17-13.6,32.9-13.6,42.6,0,7.3,3.3,10.6,7.9,10.6C392.5,406.4,403,393.4,412.1,379.4Z" transform="translate(-228.9)" fill="#231f20"/><path d="M475.9,379.4s1.1-1.7,2.5-1.7a3.1,3.1,0,0,1,3.3,3.3,6.1,6.1,0,0,1-.6,2.1c-11.1,17.1-28.9,29.7-47.1,29.7-15.4,0-24-7.6-24-21.6,0-26.3,23.4-45.7,40.4-45.7,9.6,0,15.1,4.8,15.1,13.2,0,12.9-20.3,24.8-46.1,27.2-.1,1.8-.3,3.7-.3,5.4,0,9.7,6.4,14.7,15.7,14.7C447.9,406,465.5,395.5,475.9,379.4Zm-54.9,0c20.5-2.5,35.9-12.1,35.9-21.6,0-3.5-2.7-5.7-6.6-5.7C440.6,352.1,426.1,363.5,421,379.4Z" transform="translate(-228.9)" fill="#231f20"/><path d="M557.8,348.6c0,1.4-.8,2.8-3.5,3.9-5.9,2.4-19.9,15.5-33,28.5,2.7,18.9,7.8,25.1,13.7,25.1,4.2,0,7.8-4.1,10.5-8.6a3.2,3.2,0,0,1,2.6-1.9,2.7,2.7,0,0,1,2.5,2.7c0,2.3-1.9,5.9-4.9,8.9s-7.2,5.6-12.1,5.6c-9.6,0-15.8-5.7-19.6-24.2-10.3,10.8-23.8,24-31.1,24-2.7,0-4.3-1.2-4.3-3.1a3.4,3.4,0,0,1,2.7-3.4c7.3-2.2,19.4-13.2,31.3-25.6l-.3-3c-2.9-22.9-4.5-25.4-6.4-25.4-3.6,0-16.8,18.6-24.8,30.8-.8,1.3-1.6,2.2-3,2.2a3,3,0,0,1-3.2-2.8,4.6,4.6,0,0,1,1-2.9c11.4-17.5,22.7-33.9,31.6-33.9,3.5,0,5.7,1,7.5,3.7s3.3,8.4,5.2,23.2c11.5-11.8,26.4-26.9,33.4-26.9C556.3,345.5,557.8,346.8,557.8,348.6Z" transform="translate(-228.9)" fill="#231f20"/><path d="M656.3,329c12.9-18.4,34.4-42.6,52.7-42.6,10.3,0,18.1,7,18.1,22.1a73.7,73.7,0,0,1-2.4,18.3c13.2-17.8,34.2-40.4,52.3-40.4,10.7,0,18.5,6.3,18.5,19.7,0,28-40.7,63.6-40.7,89.2,0,8.7,4.7,13.7,11.1,13.7,10,0,22.4-14,32.4-29.6a3.1,3.1,0,0,1,2.7-1.7,3.1,3.1,0,0,1,3.2,3.1,4.2,4.2,0,0,1-.6,2.3c-10.8,16.8-24,32.6-39,32.6-10.8,0-19.1-7.4-19.1-20.6,0-27.8,40.8-63.9,40.8-89.2,0-8.2-3.7-12.4-10.1-12.4-13.5,0-33.4,20.7-47.8,40.9-7.8,11-12.3,19.1-18.6,32.1s-15.6,33.4-19.9,43.3c-1.6,3.5-3.7,5.5-5.7,5.5a4.3,4.3,0,0,1-4.6-4.6c0-5.5,4.9-15.7,14.3-30.8a348.8,348.8,0,0,0,14.9-33.3c6.9-17.8,9.2-30.2,9.2-38.3,0-10-3.6-14.8-9.8-14.8-13.4,0-33.3,20.7-47.7,40.9-7.8,11-12.3,19.1-18.6,32.1s-15.9,34.1-20.2,44.1c-1.6,3.5-3.7,5.5-5.7,5.5a4.4,4.4,0,0,1-4.7-4.6c0-5.5,5-15.7,14.4-30.8,2.3-4.6,10.1-20.7,15.2-34.1,6.4-16.5,9.2-27.6,9.2-35.3s-3.5-14.1-9.5-16.5c-3.8,23.9-26.9,54.1-47.2,54.1-10.7,0-17.2-6.4-17.2-17.4,0-22.4,30.2-44.5,56.8-44.8-.2-5.1-1.3-7.3-2.1-8.7a6.1,6.1,0,0,1-1-2.6,3.8,3.8,0,0,1,3.9-3.5c3.6,0,7.3,5.4,7.4,15.8,11,2.8,18,11.9,18,23.8A57.7,57.7,0,0,1,656.3,329Zm-23.8-35.5c-22.6.4-47.9,19.3-47.9,38.7,0,6.2,3.4,9.8,8.9,9.8C610.2,342,629.3,314.2,632.5,293.5Z" transform="translate(-228.9)" fill="#231f20"/><path d="M838.9,379.4a3,3,0,0,1,2.7-1.7,3.2,3.2,0,0,1,3.2,3.1,4.3,4.3,0,0,1-.7,2.3c-9.8,15.2-21.4,29.7-34.5,29.7-8.9,0-14.8-5.6-14.8-16.7s6.2-26.1,12-37.1c4.9-9.5,7.4-13.5,9.8-13.5s4.3,1.6,4.3,3.8-2.4,7.5-6.8,14.7c-5.3,10.5-10.5,22.9-10.5,32.4,0,7.2,3,10,7.3,10C819.3,406.4,829.8,393.4,838.9,379.4ZM829,321a5.5,5.5,0,0,1,5.8,5.6c0,2.9-2.8,7.5-7.2,7.5s-5.9-1.9-5.9-5.4S825.1,321,829,321Z" transform="translate(-228.9)" fill="#231f20"/><path d="M916.8,379.4a3.1,3.1,0,0,1,2.7-1.7,3.1,3.1,0,0,1,3.2,3.1,4.3,4.3,0,0,1-.7,2.3c-9.8,15.2-21.4,29.7-34.5,29.7-8.2,0-13.6-5.4-13.6-14.6,0-14.2,14.9-29.5,14.9-40.6,0-3.5-2.1-5.5-5.6-5.5-8.4,0-22.2,10.3-30,19.7-6.5,7.9-12.4,23.5-16.4,36.2-.6,2.1-1.6,4.8-4.8,4.8a3,3,0,0,1-3.1-3.2,10.7,10.7,0,0,1,.6-3.8c6.2-19.1,14.6-40.1,21.3-56.1,1.1-2.7,2.9-4.2,5.1-4.2s3.8,1.5,3.8,3.5-1.4,5.1-3.8,9.3l-2.2,5.4c8.9-9.7,20.5-18.2,29.7-18.2s13.5,5.1,13.5,12.8c0,13.5-14.6,27-14.6,41,0,4.6,2.5,7.1,6.5,7.1C897.2,406.4,907.7,393.4,916.8,379.4Z" transform="translate(-228.9)" fill="#231f20"/><path d="M980.6,379.4s1.1-1.7,2.5-1.7a3.1,3.1,0,0,1,3.3,3.3,6.1,6.1,0,0,1-.6,2.1c-11.1,17.1-28.9,29.7-47.1,29.7-15.4,0-24-7.6-24-21.6,0-26.3,23.4-45.7,40.4-45.7,9.6,0,15.1,4.8,15.1,13.2,0,12.9-20.3,24.8-46.1,27.2-.1,1.8-.3,3.7-.3,5.4,0,9.7,6.4,14.7,15.7,14.7C952.6,406,970.2,395.5,980.6,379.4Zm-54.9,0c20.5-2.5,35.9-12.1,35.9-21.6,0-3.5-2.7-5.7-6.6-5.7C945.3,352.1,930.8,363.5,925.7,379.4Z" transform="translate(-228.9)" fill="#231f20"/><path d="M1012,404.7c13.4-5.1,22.1-15.6,28.5-25.3,0,0,1.1-1.7,2.6-1.7a3,3,0,0,1,3.3,3.1,8.8,8.8,0,0,1-.6,2.3c-9.4,14.7-25.2,29.7-50.8,29.7-14.9,0-22.7-8.1-22.7-17.3,0-2.9,3-8.1,8.3-16.1s10.3-18.1,15.9-30.1v-2.2c0-10.5,5.1-17.8,9.3-17.8s5.5,1.9,5.5,4.8-2.1,8.6-6.6,16.2c3.4,11.8,14.8,24.3,14.8,39A18.7,18.7,0,0,1,1012,404.7Zm-11.9-46c-4.1,8-8.9,15.9-14.3,24.4-4,5.8-5.9,9.3-5.9,11.4,0,3.8,4.2,11.9,14.7,11.9s16.3-8.1,16.3-17C1010.9,377.5,1004.4,369.4,1000.1,358.7Z" transform="translate(-228.9)" fill="#231f20"/><path d="M470.1,484c-8.2,0-11.6-6.9-11.6-14.2s3.4-14.3,11.6-14.3a11.7,11.7,0,0,1,8.7,4l-3.6,2.9a6.6,6.6,0,0,0-5.1-2.3c-5.2,0-6.7,5.2-6.7,9.5s1.5,9.7,6.7,9.7a6.9,6.9,0,0,0,4.7-2v-3.1h-3.1V470h8.1v8.6A11.6,11.6,0,0,1,470.1,484Z" transform="translate(-228.9)" fill="#231f20"/><path d="M500.9,483.7,493,472.4h-2.7v11.3h-5V455.9h9.1c5.4,0,9.4,2.8,9.4,8.3a7.5,7.5,0,0,1-5.6,7.7l8.8,11.8Zm-6.7-23.2h-3.9v7.3h3.9c3.1,0,4.7-1.3,4.7-3.6S497.3,460.5,494.2,460.5Z" transform="translate(-228.9)" fill="#231f20"/><path d="M526.8,483.7l-2.1-6.1H514.5l-2,6.1h-5.2l9.8-27.8h5l9.6,27.8Zm-6.7-20.2-.5-1.9a10.6,10.6,0,0,1-.5,1.9l-3.1,9.7h7.2Z" transform="translate(-228.9)" fill="#231f20"/><path d="M544.7,472.4h-4.1v11.3h-5V455.9h9.1c5.4,0,9.4,2.8,9.4,8.3S550.1,472.4,544.7,472.4Zm-.1-11.9h-4v7.3h4c3.3,0,4.8-1.3,4.8-3.6S547.9,460.5,544.6,460.5Z" transform="translate(-228.9)" fill="#231f20"/><path d="M575,483.7V471.3H563.8v12.4h-5V455.9h5v10.9H575V455.9h5v27.8Z" transform="translate(-228.9)" fill="#231f20"/><path d="M586.3,483.7V455.9h5v27.8Z" transform="translate(-228.9)" fill="#231f20"/><path d="M608.5,484c-6.3,0-11.9-4.8-11.9-14.1s5.6-14.4,11.9-14.4c3.9,0,6.4,1.4,9,4l-3.6,3.1a6.5,6.5,0,0,0-5.4-2.6c-3.9,0-6.9,3.5-6.9,9.9s3,9.5,6.9,9.5c2.2,0,3.6-.7,5.4-2.6l3.7,2.9C614.8,482.7,612.3,484,608.5,484Z" transform="translate(-228.9)" fill="#231f20"/><path d="M641.7,483.7h-9.1V455.9h9.1c8.4,0,12.4,6.6,12.4,14.1S649.9,483.7,641.7,483.7Zm0-23.2h-4v18.7h4c5.3,0,7.5-4.6,7.5-9.2S647.2,460.5,641.7,460.5Z" transform="translate(-228.9)" fill="#231f20"/><path d="M659.4,483.7V455.9h16.9v4.6H664.4v6.3H673v4.5h-8.6v7.9h13.3v4.5Z" transform="translate(-228.9)" fill="#231f20"/><path d="M689.5,484.2a14.1,14.1,0,0,1-9.7-4.4l3.7-3.1a8.7,8.7,0,0,0,6,3c2.7,0,4.4-1.6,4.4-3.6,0-5.2-13.1-4.2-13.1-12.9,0-4.7,3.7-7.9,9.1-7.9a12.9,12.9,0,0,1,8.2,3.3l-3.6,3.2a7.1,7.1,0,0,0-4.6-1.9c-2.5,0-3.9,1.2-3.9,3.1,0,4.9,13,4,13,13C699,481.6,694.2,484.2,689.5,484.2Z" transform="translate(-228.9)" fill="#231f20"/><path d="M703.7,483.7V455.9h5v27.8Z" transform="translate(-228.9)" fill="#231f20"/><path d="M725.6,484c-8.1,0-11.6-6.9-11.6-14.2s3.5-14.3,11.6-14.3a12.1,12.1,0,0,1,8.8,4l-3.6,2.9a6.7,6.7,0,0,0-5.2-2.3c-5.2,0-6.6,5.2-6.6,9.5s1.4,9.7,6.6,9.7a7,7,0,0,0,4.8-2v-3.1h-3.1V470h8v8.6A11.5,11.5,0,0,1,725.6,484Z" transform="translate(-228.9)" fill="#231f20"/><path d="M758.3,483.7l-11.5-18a13.7,13.7,0,0,1-1-1.8v19.8h-4.9V455.9h4.9l11.4,18a17.1,17.1,0,0,1,1.1,2v-20h4.9v27.8Z" transform="translate(-228.9)" fill="#231f20"/><path d="M769.6,483.7V455.9h16.9v4.6h-12v6.3h8.6v4.5h-8.6v7.9h13.4v4.5Z" transform="translate(-228.9)" fill="#231f20"/><path d="M807.5,483.7l-7.9-11.3h-2.7v11.3h-5V455.9H801c5.4,0,9.5,2.8,9.5,8.3a7.5,7.5,0,0,1-5.7,7.7l8.8,11.8Zm-6.7-23.2h-3.9v7.3h3.9c3.1,0,4.7-1.3,4.7-3.6S803.9,460.5,800.8,460.5Z" transform="translate(-228.9)" fill="#231f20"/><path d="M948.3,433.9C926.2,589,792.9,708.3,631.6,708.3c-163.9,0-299-123.2-317.7-282.1" transform="translate(-228.9)" fill="none" stroke="#231f20" stroke-linecap="round" stroke-linejoin="round" stroke-width="10"/><path d="M340.3,256C390.6,145.4,502.1,68.4,631.6,68.4c153,0,280.8,107.3,312.5,250.8" transform="translate(-228.9)" fill="none" stroke="#231f20" stroke-linecap="round" stroke-linejoin="round" stroke-width="10"/><path d="M380.6,178.6S360,136.2,291.9,163C291.9,163,332.5,205,380.6,178.6Z" transform="translate(-228.9)" fill="none" stroke="#231f20" stroke-miterlimit="10" stroke-width="10"/><path d="M410,164.5s-37.1,29.1,3.5,90.1C413.5,254.6,445.9,206,410,164.5Z" transform="translate(-228.9)" fill="none" stroke="#231f20" stroke-miterlimit="10" stroke-width="10"/><path d="M498.2,102.6S454,119,474.1,189.4C474.1,189.4,519.8,153,498.2,102.6Z" transform="translate(-228.9)" fill="none" stroke="#231f20" stroke-miterlimit="10" stroke-width="10"/><path d="M608.8,73.2s-46.5,7.5-40.5,80.5C568.3,153.7,620.2,126.9,608.8,73.2Z" transform="translate(-228.9)" fill="none" stroke="#231f20" stroke-miterlimit="10" stroke-width="10"/><path d="M744.7,92.1s-42.1-21.3-80.2,41.2C664.5,133.3,722.3,142.2,744.7,92.1Z" transform="translate(-228.9)" fill="none" stroke="#231f20" stroke-miterlimit="10" stroke-width="10"/><path d="M846.1,158s-30.2-36.3-89.9,6C756.2,164,805.7,195.1,846.1,158Z" transform="translate(-228.9)" fill="none" stroke="#231f20" stroke-miterlimit="10" stroke-width="10"/><path d="M915.5,253.9s-20.8-42.3-88.8-15.1C826.7,238.8,867.6,280.5,915.5,253.9Z" transform="translate(-228.9)" fill="none" stroke="#231f20" stroke-miterlimit="10" stroke-width="10"/><path d="M924.6,506.8s10.4-46-59.5-67.6C865.1,439.2,870.6,497.4,924.6,506.8Z" transform="translate(-228.9)" fill="none" stroke="#231f20" stroke-miterlimit="10" stroke-width="10"/><path d="M861.7,608.1s32.1-34.6-17.6-88.4C844.1,519.7,819.7,572.8,861.7,608.1Z" transform="translate(-228.9)" fill="none" stroke="#231f20" stroke-miterlimit="10" stroke-width="10"/><path d="M755.6,679.6S798,659,771.1,590.9C771.1,590.9,729.2,631.6,755.6,679.6Z" transform="translate(-228.9)" fill="none" stroke="#231f20" stroke-miterlimit="10" stroke-width="10"/><path d="M620.5,705.8s47.1,2.9,57.2-69.7C677.7,636.1,621.2,650.9,620.5,705.8Z" transform="translate(-228.9)" fill="none" stroke="#231f20" stroke-miterlimit="10" stroke-width="10"/><path d="M496.3,677.3s46.5,7.9,64.3-63.2C560.6,614.1,502.8,622.8,496.3,677.3Z" transform="translate(-228.9)" fill="none" stroke="#231f20" stroke-miterlimit="10" stroke-width="10"/><path d="M402.9,610.9s43.9,17.3,75.9-48.6C478.8,562.3,420.5,558.9,402.9,610.9Z" transform="translate(-228.9)" fill="none" stroke="#231f20" stroke-miterlimit="10" stroke-width="10"/><path d="M340,506s30.5,36.1,89.9-6.7C429.9,499.3,380.2,468.6,340,506Z" transform="translate(-228.9)" fill="none" stroke="#231f20" stroke-miterlimit="10" stroke-width="10"/><path d="M467.3,112.6S456.4,66.7,384.1,78C384.1,78,414.5,127.8,467.3,112.6Z" transform="translate(-228.9)" fill="none" stroke="#231f20" stroke-miterlimit="10" stroke-width="10"/><path d="M586.7,67.6S575.9,21.7,503.5,33C503.5,33,534,82.8,586.7,67.6Z" transform="translate(-228.9)" fill="none" stroke="#231f20" stroke-miterlimit="10" stroke-width="10"/><path d="M732.1,79s13.6-45.2-54.7-71.6C677.4,7.4,678.8,65.8,732.1,79Z" transform="translate(-228.9)" fill="none" stroke="#231f20" stroke-miterlimit="10" stroke-width="10"/><path d="M842.3,143s31-35.6-20.3-87.8C822,55.2,799.3,109,842.3,143Z" transform="translate(-228.9)" fill="none" stroke="#231f20" stroke-miterlimit="10" stroke-width="10"/><path d="M919.3,243.3s40.5-24.2,7.8-89.8C927.1,153.5,888.9,197.7,919.3,243.3Z" transform="translate(-228.9)" fill="none" stroke="#231f20" stroke-miterlimit="10" stroke-width="10"/><path d="M930.3,508s45.4,12.5,70.3-56.4C1000.6,451.6,942.2,454.4,930.3,508Z" transform="translate(-228.9)" fill="none" stroke="#231f20" stroke-miterlimit="10" stroke-width="10"/><path d="M871.8,608.4s37.1,29.2,86.6-24.7C958.4,583.7,903.5,563.7,871.8,608.4Z" transform="translate(-228.9)" fill="none" stroke="#231f20" stroke-miterlimit="10" stroke-width="10"/><path d="M613.7,713.7s13.3,45.2,85,30C698.7,743.7,665.5,695.6,613.7,713.7Z" transform="translate(-228.9)" fill="none" stroke="#231f20" stroke-miterlimit="10" stroke-width="10"/><path d="M495,685s-4,47.1,68.3,58.8C563.3,743.8,549.8,686.9,495,685Z" transform="translate(-228.9)" fill="none" stroke="#231f20" stroke-miterlimit="10" stroke-width="10"/><path d="M399.5,614.2s-23.3,41,37.4,81.9C436.9,696.1,448.4,638.9,399.5,614.2Z" transform="translate(-228.9)" fill="none" stroke="#231f20" stroke-miterlimit="10" stroke-width="10"/><path d="M329.3,503.8s-38.7,27-1.5,90.1C327.8,593.9,362.8,547.2,329.3,503.8Z" transform="translate(-228.9)" fill="none" stroke="#231f20" stroke-miterlimit="10" stroke-width="10"/><path d="M766.4,685.5s29.8,36.5,90-5.2C856.4,680.3,807.1,648.8,766.4,685.5Z" transform="translate(-228.9)" fill="none" stroke="#231f20" stroke-miterlimit="10" stroke-width="10"/></g></g></svg>