<svg xmlns="http://www.w3.org/2000/svg" width="345.6" height="362.2" viewBox="0 0 345.6 362.2"><title>Asset 1</title><g id="Layer_2" data-name="Layer 2"><g id="Layer_1-2" data-name="Layer 1"><polygon points="225.3 77.4 210.8 129.1 254.8 234.1 178.4 234.2 172.9 253 262.6 252.9 308.2 361.9 345.6 362.2 225.3 77.4" fill="#fff"/><path d="M168.9,260.8h-.8l-14.9.4a40.3,40.3,0,0,0-5,.5,78.1,78.1,0,0,1-14.4,1.4,42.4,42.4,0,0,0-10.1,1.3l-17,4.9c-.7.2-1.5.5-2-.8l3.4-4.1,3-4.1c.5-.7,1.1-1.4,1.6-2.2,3.2-5.2,6.9-10.1,9.7-15.6,1.2-2.3,2-2.6,4.4-1.8a9.2,9.2,0,0,0,6.9-.2,10.3,10.3,0,0,1,3.4-.7,18.6,18.6,0,0,0,8-2c2.8-1.3,5.6-2.7,8.9-2.8a4.2,4.2,0,0,0,1.5-.4,51,51,0,0,0,14.6-9.7l4.1-3.6c2.1-1.9,4.5-3.7,6.4-5.8s5.7-7.4,8.4-11.2a69.6,69.6,0,0,0,9.6-18.8,9.1,9.1,0,0,0,.3-2.3l.3-14.1c0-.4-.1-.8-.1-1.2-.4-3.3-1.9-4.4-5.1-3.6a3.4,3.4,0,0,0-1.4.5c-5.8,3.2-12,5.2-17.8,8.2s-9.2,5.9-13.6,9.2c-2.9,2.2-5.6,4.6-8.4,7a2.5,2.5,0,0,1-2.5.7c-1.7-3.8-1.6-4.1-.6-7.5,1.8-5.5,3.7-11.1,4.3-17,.1-1.3.6-2.6.8-3.8a3.9,3.9,0,0,1,3.2-3.1,37.6,37.6,0,0,0,13.3-7.3,25.5,25.5,0,0,1,5.3-4,24.4,24.4,0,0,0,8.1-7.2c3-3.9,6-7.9,8.8-12s5.2-7.8,7.6-11.8a28.8,28.8,0,0,0,2.4-5c1.2-3.4,2.1-6.9,3.3-10.4a15.9,15.9,0,0,0,1.1-6.5c-.1-3.8,0-7.6-.2-11.3a14.7,14.7,0,0,0-1.1-4.6,3.4,3.4,0,0,0-4.6-1.7l-5.4,3.1c-2.4,1.4-4.2,3.7-6.4,5.1s-4.3,3.8-6.4,5.7c-4.8,4.4-8.8,9.7-12.9,14.8-1.9,2.4-3.4,5.2-5.2,7.8s-3.3,5-5.1,7.4a2.4,2.4,0,0,1-1.6.9,1.6,1.6,0,0,1-1.5-1.6c-.1-1.4-.1-2.8-.1-4.3a23.6,23.6,0,0,0,0-4.6,30.6,30.6,0,0,1-.1-7.4,3.6,3.6,0,0,1,1.5-3.1,8.3,8.3,0,0,0,1.8-3,41.8,41.8,0,0,1,2.8-5.6c2.5-4.1,4.9-8.2,7.1-12.6a41.5,41.5,0,0,0,3.4-9.5l1.5-8.1a30.2,30.2,0,0,0-.3-10.4,19.7,19.7,0,0,1-.3-2.4c.2-4.2-1.2-8.2-2.4-12.2-2.6-8.3-6.6-15.9-10.1-23.8-1.8-3.9-4.1-7.5-6.2-11.3A3.2,3.2,0,0,0,152.8,0,3,3,0,0,0,150,2.4a41.5,41.5,0,0,1-4.5,10.4,15.5,15.5,0,0,0-1.4,3.2c-1.7,6.3-3.7,12.5-3.1,19.2a17.9,17.9,0,0,1-.2,2.3c-.1,2.2-.1,4.5-.2,6.7a30.3,30.3,0,0,0,.8,10.4,1.2,1.2,0,0,1,.1.8c-.7,2.8.3,5.5.6,8.1.6,4.2.7,8.4,2.2,12.4a9.9,9.9,0,0,1,.5,3,50.2,50.2,0,0,0,3.8,14.4,38.7,38.7,0,0,1,3.3,16.7,123.7,123.7,0,0,0,.5,14.9c.5,4.2,1.3,8.5.1,12.8a2.4,2.4,0,0,0,0,1.2c.7,3.2-.4,6.2-.9,9.3l-.9.5-1.3-3.6a27.7,27.7,0,0,0-3.6-7.8,18.3,18.3,0,0,1-1.3-2.4,26.6,26.6,0,0,0-4.7-7.1,51,51,0,0,1-5.8-8c-1.9-3.3-3.9-6.7-6.8-9.4-4.5-4.2-9.1-8.3-13.7-12.4a21.8,21.8,0,0,0-2.2-2.1,3.5,3.5,0,0,0-4.1-.3,2.4,2.4,0,0,0-1.1,2.7,18.6,18.6,0,0,1-.5,6.2,41.1,41.1,0,0,0,.1,14,49.5,49.5,0,0,1,.8,6.6c.4,5,.6,9.9,2.5,14.6,1,2.7,2,5.4,3.1,8s2.1,5.1,3.3,7.6a101.3,101.3,0,0,0,12.3,18.1c2.3,2.7,4.7,5.2,7.2,7.8s3.7,4,5.7,5.9,1.5,3.1.6,4.9l-5.7,12.5c-1.2,2.5-2.6,4.9-3.5,7.4a47.4,47.4,0,0,1-4.2,8.8,33.7,33.7,0,0,0-2.8,6.1,23.5,23.5,0,0,1-5.1,8.2c-1.1-1.7-1.1-1.7-1-3.3a24.7,24.7,0,0,0-.7-8.1c-.6-2.6-1-5.2-1.6-7.7a38.9,38.9,0,0,0-1.2-4.9,64.4,64.4,0,0,0-2.5-6.6c-1.7-4.3-3.5-8.5-6.7-11.9a15.2,15.2,0,0,1-3-4.6c-1.4-3.7-3.9-6.8-5.5-10.4a13.7,13.7,0,0,0-3.9-4.7q-2.7-2.1-4.8.6a51,51,0,0,0-8.5,17.9,63.9,63.9,0,0,0-2.1,15.1,48.6,48.6,0,0,0,.3,10.1c.7,4.5,1.1,9.1,1.7,13.6a24,24,0,0,0,1.2,5.3c1.5,4.5,3,8.9,4.7,13.3s2.7,6.5,4.1,9.7,3.3,6.9,4.9,10.3a2.8,2.8,0,0,1,0,2.9,82.3,82.3,0,0,1-12.5,15.6c-2.6,2.7-5.3,5.3-8,8l-5.9,5.7a9.1,9.1,0,0,1-1.6.6c.1-2.2.2-4,.4-5.8a20.8,20.8,0,0,1,.3-2.3c.5-4,1.2-8,1.4-12,.3-6.8-1.1-13.5-2.4-20.2a18.7,18.7,0,0,0-.7-2.2c-1.7-4.6-3.5-9-4.9-13.7a30.2,30.2,0,0,0-6.7-11.8c-2.4-2.6-4.8-2.4-6.5.8L43,243.9a44.6,44.6,0,0,0-2.2,5c-.6,1.9-1.1,3.8-1.7,5.6-1,3.3-2.2,6.5-3.1,9.7-2.2,7.7-2.7,15.7-3.1,23.6s-.7,13.1,1.3,19.5c.1.4.1,1,.2,1.5,1.2,5.8,2.2,11.5,4.4,17,1,2.3.9,2.9-.9,4.5s-5.8,4.8-8.8,7.1-4.1,2.8-6.2,4.2-5.7,3.4-8,5.6a40.2,40.2,0,0,1-7.5,5.5c-2,1.1-3.8,2.4-5.6,3.6a2.2,2.2,0,0,0-.9.7,2.9,2.9,0,0,0-.6,3.3,2.9,2.9,0,0,0,2.9,1.6,7.5,7.5,0,0,0,2.5-.9c2.8-1.7,6-2.7,8.4-5a4.3,4.3,0,0,1,1.3-.9c2.2-1,4.4-1.4,6.7-.1a27.5,27.5,0,0,0,3.6,1.5c2.8.9,5.6,1.5,8.2,2.6a26.7,26.7,0,0,0,7.2,1.6,44.2,44.2,0,0,1,8.9,1.1,14.7,14.7,0,0,0,5.9.2c4.9-.5,9.9-.7,14.6-2.4h1.2c6.3-.6,11.4-4.3,16.9-6.8.7-.3,1.2-1.1,1.8-1.6,2.7-2.2,5-4.9,7.8-7.1a25.3,25.3,0,0,0,7.5-10.4c1.5-3.5.4-5.9-3.2-7a19.8,19.8,0,0,0-2.6-.6l-9.2-2.2-2.6-.6c-6-1.6-12-.8-18-.4s-9.6.5-14.3,2c-.6.2-1.5.6-2.2-.4a8.9,8.9,0,0,1,3-3.4c1.8-1.5,3.6-3,5.3-4.6s5-5,7.4-7.6a5.5,5.5,0,0,1,6-1.7,19.9,19.9,0,0,1,2.6.9,17.8,17.8,0,0,0,6.5,1.2,10.2,10.2,0,0,1,3.4.6c2.9.6,5.8,1.6,8.8,2a45.6,45.6,0,0,0,7.4.1,50.2,50.2,0,0,0,5.4-.8l2.7-.5c4.2-.3,8.1-1.7,12.1-3a65,65,0,0,0,6.2-2.2,59.3,59.3,0,0,0,6.9-2.9c2.2-1.1,4-2.9,6.3-3.9s5.8-4.2,8.6-6.6l5-4.4c3.1-2.9,6.7-5.4,9-9.2,1.2-1.8,2.2-3.9,3.5-5.6s2.1-5.1,2.7-7.7S171.6,260.9,168.9,260.8Zm-9.7-126a14.7,14.7,0,0,1,2.4-6.1c3.1-4.8,7.1-9,9.9-14.1s8-10.9,12.5-16a82,82,0,0,1,9-8.7c2.2-2,4.7-3.7,7.1-5.5a1.2,1.2,0,0,1,1.9,1.1c0,.1.1.3,0,.4-.9,2.3-.2,4.6.2,6.9a10.4,10.4,0,0,1-.2,3.9,61.5,61.5,0,0,1-6.4,18,162.3,162.3,0,0,1-13.2,19.8,43.1,43.1,0,0,1-9.1,9c-3.5,2.6-6.9,5.3-10.8,7.2-1.6.7-3.1,1.8-5.2,1.7s-.5-2.6-.3-3.7C157.8,144,158.6,139.4,159.2,134.8Zm-7.3-50.1c-.6-3.5-1.8-6.8-2.5-10.3-2.6-13.3-4.1-26.8-2.9-40.4.4-4.3,1.3-8.5,2-12.8a10.5,10.5,0,0,1,1.2-2.9c1.2-2.5,2.6-5.1,4.2-8.2a43.1,43.1,0,0,1,4.5,7.4c2.2,4.9,4.4,9.8,6.5,14.7a46.1,46.1,0,0,1,3.6,12c.2,2,.4,4.1.5,6.2s-.3,6.5.4,9.7a2.4,2.4,0,0,1,0,1.2c-.7,3.4-1.3,6.9-2.3,10.3a85.1,85.1,0,0,1-3.4,8.3,51.4,51.4,0,0,1-2.9,5.1c-1,1.5-1.9,3.1-3,4.6a6.2,6.2,0,0,1-1.4,1.4C154.1,89.3,152.5,87.5,151.9,84.7Zm-16.6,89c-2-2.6-4.3-4.9-6.4-7.4-.6-.7-1.1-1.5-1.6-2.2s-.9-1.6-1.4-2.3a63.1,63.1,0,0,1-8.8-16.1c-1-2.6-1.9-5.2-2.9-7.7s-2-8.1-2.4-12.2c-.2-2.1-.3-4.2-.4-6.3a20,20,0,0,0-.7-5.4c-.8-3.3-.1-6.5,1-9.6,0-.2.3-.3.9-.7a77.3,77.3,0,0,1,13.2,12.3,47.9,47.9,0,0,1,3.4,5.3,52.2,52.2,0,0,0,7,9.9,17.7,17.7,0,0,1,1.6,2.2,91.5,91.5,0,0,1,6.7,15,53,53,0,0,0,2.3,6.7c2.1,4.5,2,9.1,1.2,13.8s-1.7,7.1-2.6,10.6c-.1.4-.2.9-.5,1s-1.2.5-1.4.3C140.9,178.4,137.6,176.6,135.3,173.7Zm-7.4,59.5,5.1-11.4a15.1,15.1,0,0,1,.9-1.8c1.3-2.4,2.7-4.8,3.9-7.2a28,28,0,0,1,7.2-9.2,40.7,40.7,0,0,0,5.6-5.4,70.3,70.3,0,0,1,7.7-6.6c4-3.2,8-6.3,12.1-9.3,1.6-1.2,3.4-2.3,5.2-3.4l5.6-2.8,1-.6c3.4-.7,6.3-2.4,9.4-3.7h.5c.1.3.4.6.5.9s.1,1.1.2,1.6c.9,4.1.3,8.2-.9,12.3a39.9,39.9,0,0,1-5.4,11.2c-2.1,3.3-4.4,6.5-6.6,9.7a31.5,31.5,0,0,1-5.7,6.4c-1.5,1.4-2.9,3-4.5,4.3s-5.9,5.2-9,7.6a31.9,31.9,0,0,1-9.4,4.7l-6.6,2.3a57.3,57.3,0,0,1-15.4,2.8,17,17,0,0,1-2.1-.1A24.6,24.6,0,0,1,127.9,233.2ZM56.2,331.3a26.9,26.9,0,0,1,6.8-1.6c4.5-.6,9.1-.9,13.6-1.1a44.1,44.1,0,0,1,17.3,2.2c1,.3,2.1.4,3.1.6l1.7.6a4.2,4.2,0,0,1-1.3,3.8c-4.4,4.9-8.9,9.8-14.7,13.2a60,60,0,0,1-9.4,3.9c-6.7,2.3-13.7,2.8-20.7,3.4a8.1,8.1,0,0,1-2.7-.1c-3.4-.5-6.7-1.2-10-1.8a25.6,25.6,0,0,0-2.7-.5c-4.4-.1-7.9-2.4-11.4-4.6a3.6,3.6,0,0,1-.5-.9c.8-1.6,2.4-2.5,3.8-3.6a12.7,12.7,0,0,1,5.2-3c.7-.3.7-.3,1.3-1.2s1.9-1.6,2.7-2.4a6.6,6.6,0,0,1,5.1-2.2,15.3,15.3,0,0,0,2.6-.8C49.4,333.9,52.7,332.5,56.2,331.3Zm7.7-48.8c-.9,7.1-1.8,14.2-2.9,21.3a36.4,36.4,0,0,1-2.2,7.1,9.3,9.3,0,0,1-2.2,2.7l-9.7,8.5c-1.3,1.1-2.4,1-3.2-.6a36.6,36.6,0,0,1-2.5-7c-1.1-5.3-1.8-10.8-2.8-16.2-.6-3.2,0-6.5.3-9.7.1-1.3.1-2.6.2-3.9s.1-2.8.2-4.3.3-3.9.5-5.8a37.3,37.3,0,0,1,.9-4.6q2.6-9.6,5.4-19.2a24,24,0,0,1,5.8-10c.2-.2.5-.2,1.1-.4a14,14,0,0,1,4.3,7.4,16.6,16.6,0,0,0,1.1,3.8c4,8.5,5.3,17.7,5.8,27A17,17,0,0,1,63.9,282.5Zm26.3-39.7c-1.5-4.1-3.3-8.2-4-12.6-1.3-8-2.6-16-2.3-24.1a61.1,61.1,0,0,1,1.3-11.3,62,62,0,0,1,3.3-9.1c.5-1.2,1.1-2.4,1.7-3.6s2.8-2.7,4.4-.2,2.1,3.9,3.2,5.9l-.3.2c1.5,2.4,2.9,4.9,4.6,7.2,3.4,4.7,5.5,10,7.5,15.4s2.8,11.4,3.7,17.2.6,9.1.8,13.6a12.2,12.2,0,0,1-1.3,5.3,38.7,38.7,0,0,1-5.7,9.3,52.5,52.5,0,0,0-4,5.3l-1.5,1.8a1.4,1.4,0,0,1-2.1-.2c-.9-1.2-1.8-2.5-2.6-3.8C94.1,253.9,92.3,248.3,90.2,242.8Zm74.6,25.3c-1.3,3.2-2.6,6.4-5.2,8.9s-5.1,4.9-7.6,7.4a67,67,0,0,1-20.8,15,51.9,51.9,0,0,1-12.9,4.5,64.3,64.3,0,0,0-7.6,1.7,40.3,40.3,0,0,1-8.5,1,42.6,42.6,0,0,1-15-2.5,52.5,52.5,0,0,0-5.7-1.3c-1.1-.3-2.3-.4-3.3-1.6a7.5,7.5,0,0,1,.9-1.5c3.7-4.1,7.4-8.1,11.2-12.1a7.4,7.4,0,0,1,2.5-1.7,11.4,11.4,0,0,0,4.4-3.1,33.5,33.5,0,0,1,14.8-9.1l10.5-3.2a26.4,26.4,0,0,1,9.7-1.2,37.7,37.7,0,0,0,4.7-.2l6.6-.6,2.3-.3a49.5,49.5,0,0,1,18.8-.8C164.7,267.8,164.8,268,164.8,268.1Z" fill="#fff"/><path d="M34,342.8a2.9,2.9,0,0,0,2.6-1.4l2.1-2.9a6,6,0,0,1,4.7-2.5,6.6,6.6,0,0,0-5.1,2.2c-.8.8-2,1.4-2.7,2.4s-.6.9-1.3,1.2a12.7,12.7,0,0,0-5.2,3C30.5,343.6,32,342.5,34,342.8Z" fill="#fff"/></g></g></svg>